<svg width="20" height="20" viewBox="0 0 20 20">
	<title>star-20</title>
	<path d="M10,4.3L10,4.3l1.2,3.8l0.1,0.3h0.4l4,0l-3.2,2.4l-0.3,0.2l0.1,0.3l1.2,3.8l-3.2-2.4L10,12.7l-0.3,0.2l-3.2,2.3l1.2-3.8
	l0.1-0.3l-0.3-0.2L4.3,8.5h4h0.4l0.1-0.3L10,4.3 M10,3.8C9.8,3.8,9.6,4,9.5,4.2L8.3,8h-4C4.1,8,4,8.1,3.9,8.2
	C3.7,8.4,3.8,8.7,4,8.9l3.2,2.4L6,15.1c0,0.1,0,0.3,0.1,0.4c0.1,0.1,0.3,0.2,0.4,0.2c0.1,0,0.2,0,0.3-0.1l3.2-2.4l3.2,2.4
	c0.1,0.1,0.2,0.1,0.3,0.1c0.1,0,0.1,0,0.2,0c0.3-0.1,0.4-0.4,0.3-0.6l-1.2-3.8L16,8.9c0.1-0.1,0.2-0.2,0.2-0.4
	C16.2,8.2,16,8,15.7,8h-4l-1.2-3.8c0-0.2-0.2-0.3-0.3-0.3C10.1,3.8,10,3.8,10,3.8L10,3.8z"/>
</svg>
