<?xml version="1.0" encoding="utf-8"?>
<!-- Generator: Adobe Illustrator 23.0.6, SVG Export Plug-In . SVG Version: 6.00 Build 0)  -->
<svg version="1.1" id="Layer_1" xmlns="http://www.w3.org/2000/svg" xmlns:xlink="http://www.w3.org/1999/xlink" x="0px" y="0px"
	 width="10px" height="10px" viewBox="0 0 10 10" style="enable-background:new 0 0 10 10;" xml:space="preserve">
<style type="text/css">
	.st0{fill:#FFFFFF;}
</style>
<g id="x">
	<path class="st0" d="M2,8L2,8C1.8,7.8,1.8,7.5,2,7.3L7.3,2C7.5,1.8,7.8,1.8,8,2l0,0c0.2,0.2,0.2,0.5,0,0.7L2.7,8
		C2.5,8.2,2.2,8.2,2,8z"/>
	<path class="st0" d="M8,8L8,8C7.8,8.2,7.5,8.2,7.3,8L2,2.7C1.8,2.5,1.8,2.2,2,2l0,0c0.2-0.2,0.5-0.2,0.7,0L8,7.3
		C8.2,7.5,8.2,7.8,8,8z"/>
</g>
</svg>
